# File created by Blade
# Date/Time:  Thu Jan 22 19:34:15 2015
# Frame Rate: 120.000 fps
#------------------------------------------------------
:FULLY-SPECIFIED
:DEGREES
1188
root -13.146201 15.832034 -10.224000 31.593229 -30.145983 20.108440
RightUpLeg -128.816106 -18.702788 -1.721420
RightLeg 128.905014 -0.000000 -0.000000
RightFoot -43.064636 -11.003991 8.160068
RightToeBase -1.222390 -0.000000 0.000000
LeftUpLeg -17.852614 39.785647 27.970653
LeftLeg 6.871640 -0.000000 -0.000000
LeftFoot -7.800194 10.432174 -47.142053
LeftToeBase 15.040543 -0.000000 -0.000000
Spine 22.128885 2.655211 27.252215
RightShoulder -3.454587 2.373716 -10.180000
RightArm 31.362394 20.044602 72.154457
RightForeArm -13.397575 -0.000000 22.220765
RightHand 29.165506 -0.000000 -89.785745
RightHandThumb1 -24.326973 -0.000000 -32.862282
LeftShoulder -18.763974 -10.332228 42.573427
LeftArm 31.074647 -13.880142 -65.839378
LeftForeArm 2.597413 -0.000000 6.484598
LeftHand -5.253836 -0.000000 17.721119
LeftHandThumb1 -26.253704 0.000000 33.147579
Head -7.978375 22.316494 22.734762
1189
root -13.132595 15.868986 -10.252019 31.849142 -30.100974 19.942305
RightUpLeg -128.828785 -18.594777 -1.706968
RightLeg 128.683530 -0.000000 -0.000000
RightFoot -42.972152 -10.987674 8.228559
RightToeBase -1.149629 -0.000000 0.000000
LeftUpLeg -18.145798 40.003997 27.894209
LeftLeg 6.843131 -0.000000 -0.000000
LeftFoot -7.670387 10.421559 -47.047436
LeftToeBase 15.049790 -0.000000 -0.000000
Spine 22.278303 2.493887 27.152312
RightShoulder -3.394209 2.516103 -10.281337
RightArm 31.521317 19.519837 71.956699
RightForeArm -13.087657 -0.000000 21.976971
RightHand 28.910104 -0.000000 -89.098159
RightHandThumb1 -24.326973 -0.000000 -32.862282
LeftShoulder -18.406803 -11.020333 42.292463
LeftArm 30.955965 -12.228251 -67.213178
LeftForeArm 2.930106 -0.000000 6.491046
LeftHand -5.236450 -0.000000 17.026954
LeftHandThumb1 -26.253704 0.000000 33.147579
Head -8.674445 22.301317 22.130655
1190
root -13.115626 15.907473 -10.279606 32.106348 -30.025405 19.782664
RightUpLeg -128.858630 -18.489705 -1.628552
RightLeg 128.425757 -0.000000 -0.000000
RightFoot -42.916398 -11.206901 8.293076
RightToeBase -1.184528 -0.000000 0.000000
LeftUpLeg -18.448066 40.161124 27.825603
LeftLeg 6.796208 -0.000000 -0.000000
LeftFoot -7.527386 10.418624 -47.004998
LeftToeBase 14.953729 -0.000000 -0.000000
Spine 22.416932 2.315689 27.064346
RightShoulder -3.442074 2.734235 -10.392003
RightArm 31.733002 18.925898 71.756753
RightForeArm -12.836760 -0.000000 21.581833
RightHand 28.887801 -0.000000 -88.404589
RightHandThumb1 -24.326973 -0.000000 -32.862282
LeftShoulder -18.008395 -11.707893 42.019695
LeftArm 30.831573 -10.644192 -68.617678
LeftForeArm 3.239703 0.000000 6.557698
LeftHand -5.425694 0.000000 15.752716
LeftHandThumb1 -26.253704 0.000000 33.147579
Head -9.368113 22.217727 21.507954
1191
root -13.096425 15.947064 -10.309521 32.369487 -29.975984 19.608695
RightUpLeg -128.879030 -18.367525 -1.602609
RightLeg 128.164737 -0.000000 -0.000000
RightFoot -42.907954 -11.162402 8.495435
RightToeBase -0.744377 -0.000000 0.000000
LeftUpLeg -18.736185 40.399808 27.746744
LeftLeg 6.737667 -0.000000 -0.000000
LeftFoot -7.365906 10.355405 -47.146244
LeftToeBase 14.927324 -0.000000 -0.000000
Spine 22.584127 2.147717 26.962968
RightShoulder -3.472664 2.865879 -10.529866
RightArm 32.016227 18.288219 71.581167
RightForeArm -12.440000 -0.000000 21.263321
RightHand 28.585944 -0.000000 -87.678957
RightHandThumb1 -24.326973 -0.000000 -32.862282
LeftShoulder -17.596854 -11.905336 41.504155
LeftArm 31.354269 -9.002055 -69.865543
LeftForeArm 3.455956 -0.000000 6.441591
LeftHand -5.427764 -0.000000 14.664796
LeftHandThumb1 -26.253704 0.000000 33.147579
Head -10.068775 22.189880 20.853782
1192
root -13.076308 15.994220 -10.342912 32.700086 -29.884219 19.377587
RightUpLeg -128.888582 -18.246436 -1.498246
RightLeg 127.861146 -0.000000 -0.000000
RightFoot -42.748459 -11.420921 8.427564
RightToeBase -1.124972 -0.000000 0.000000
LeftUpLeg -19.070878 40.581241 27.703570
LeftLeg 6.653295 -0.000000 -0.000000
LeftFoot -7.249840 10.361366 -47.309667
LeftToeBase 14.917017 -0.000000 -0.000000
Spine 22.735185 1.916178 26.946526
RightShoulder -3.487292 3.059479 -10.773775
RightArm 32.264965 17.701447 71.551017
RightForeArm -12.107331 -0.000000 21.011645
RightHand 28.364081 0.000000 -86.575438
RightHandThumb1 -24.326973 -0.000000 -32.862282
LeftShoulder -17.173561 -12.461083 41.068226
LeftArm 31.465302 -7.094876 -70.862083
LeftForeArm 3.480488 -0.000000 6.298387
LeftHand -5.254871 0.000000 13.679562
LeftHandThumb1 -26.253704 0.000000 33.147579
Head -10.835501 22.097607 20.087252
1193
root -13.053683 16.040000 -10.369181 32.957163 -29.853745 19.246971
RightUpLeg -128.919074 -18.157160 -1.514448
RightLeg 127.582860 -0.000000 -0.000000
RightFoot -42.652109 -11.494676 8.505857
RightToeBase -1.019901 -0.000000 0.000000
LeftUpLeg -19.341339 40.824762 27.543284
LeftLeg 6.494486 -0.000000 -0.000000
LeftFoot -7.032562 10.340080 -47.322352
LeftToeBase 14.876917 -0.000000 -0.000000
Spine 22.855965 1.608037 26.762057
RightShoulder -3.423146 3.008074 -10.929388
RightArm 32.773708 16.888061 71.235385
RightForeArm -11.373051 0.000000 20.493721
RightHand 28.569241 -0.000000 -85.769422
RightHandThumb1 -24.326973 -0.000000 -32.862282
LeftShoulder -16.676797 -12.774607 40.550427
LeftArm 31.803621 -5.286907 -71.739320
LeftForeArm 3.440853 -0.000000 6.156367
LeftHand -5.374514 -0.000000 12.077520
LeftHandThumb1 -26.253704 0.000000 33.147579
Head -11.374774 22.121791 19.449313
1194
root -13.031444 16.085849 -10.399936 33.241851 -29.808436 19.042585
RightUpLeg -128.924644 -18.022579 -1.477515
RightLeg 127.286826 -0.000000 -0.000000
RightFoot -42.629291 -11.395541 8.780480
RightToeBase -0.705521 -0.000000 0.000000
LeftUpLeg -19.631885 41.162556 27.426178
LeftLeg 6.363170 -0.000000 -0.000000
LeftFoot -6.804754 10.228633 -47.286746
LeftToeBase 14.756759 -0.000000 -0.000000
Spine 23.077492 1.252931 26.612220
RightShoulder -3.374827 3.282656 -11.152722
RightArm 33.046686 16.281971 71.252949
RightForeArm -11.278850 -0.000000 20.240843
RightHand 28.377188 0.000000 -84.502581
RightHandThumb1 -24.326973 -0.000000 -32.862282
LeftShoulder -16.331086 -12.948336 39.915559
LeftArm 32.532965 -3.095974 -72.312254
LeftForeArm 3.727426 -0.000000 5.716209
LeftHand -5.078714 -0.000000 11.582496
LeftHandThumb1 -26.253704 0.000000 33.147579
Head -12.203687 22.355479 18.699611
1195
root -13.005589 16.136778 -10.429915 33.558170 -29.806387 18.861870
RightUpLeg -128.964333 -17.869325 -1.476448
RightLeg 126.957750 -0.000000 -0.000000
RightFoot -42.521425 -11.493036 8.861872
RightToeBase -0.741274 -0.000000 0.000000
LeftUpLeg -19.904852 41.433593 27.276915
LeftLeg 6.189049 -0.000000 -0.000000
LeftFoot -6.637863 10.164024 -47.248781
LeftToeBase 14.631878 -0.000000 -0.000000
Spine 23.247230 0.994755 26.380628
RightShoulder -3.296028 3.413367 -11.251793
RightArm 33.327001 15.698363 71.094407
RightForeArm -11.109656 -0.000000 20.156097
RightHand 28.017726 -0.000000 -83.216034
RightHandThumb1 -24.326973 -0.000000 -32.862282
LeftShoulder -15.879870 -13.541687 39.560981
LeftArm 32.781601 -0.959996 -73.009680
LeftForeArm 4.468000 -0.000000 5.418561
LeftHand -5.041865 -0.000000 10.323459
LeftHandThumb1 -26.253704 0.000000 33.147579
Head -12.964581 22.301863 18.139472
1196
root -12.977689 16.189999 -10.458237 33.858226 -29.796115 18.683837
RightUpLeg -128.992429 -17.737620 -1.457264
RightLeg 126.634188 -0.000000 -0.000000
RightFoot -42.408295 -11.554497 8.951639
RightToeBase -0.619580 -0.000000 0.000000
LeftUpLeg -20.191327 41.780885 27.078246
LeftLeg 5.984738 -0.000000 -0.000000
LeftFoot -6.418159 10.058918 -47.060452
LeftToeBase 14.495288 -0.000000 -0.000000
Spine 23.457943 0.709481 26.171983
RightShoulder -3.322429 3.611994 -11.414951
RightArm 33.667047 15.048653 71.007899
RightForeArm -11.028703 -0.000000 19.974300
RightHand 27.681220 -0.000000 -81.853579
RightHandThumb1 -24.326973 -0.000000 -32.862282
LeftShoulder -15.437716 -14.267035 39.205173
LeftArm 32.876962 1.080050 -73.670332
LeftForeArm 4.744654 -0.000000 5.476126
LeftHand -5.367502 -0.000000 8.880320
LeftHandThumb1 -26.253704 0.000000 33.147579
Head -13.824618 22.374522 17.491780
1197
root -12.947355 16.248761 -10.494052 34.228436 -29.750450 18.456308
RightUpLeg -129.045645 -17.606749 -1.365748
RightLeg 126.253277 -0.000000 -0.000000
RightFoot -42.291948 -11.663134 9.017006
RightToeBase -0.612488 -0.000000 0.000000
LeftUpLeg -20.552159 41.992433 26.952135
LeftLeg 5.865204 -0.000000 -0.000000
LeftFoot -6.319093 10.001966 -46.985591
LeftToeBase 14.324545 -0.000000 -0.000000
Spine 23.637289 0.363048 26.003654
RightShoulder -3.219702 3.863458 -11.631608
RightArm 33.846350 14.389988 70.928783
RightForeArm -10.727318 0.000000 20.036381
RightHand 27.143777 -0.000000 -80.310500
RightHandThumb1 -24.326973 -0.000000 -32.862282
LeftShoulder -14.970296 -15.076499 38.854090
LeftArm 32.808532 3.307479 -74.157354
LeftForeArm 4.948071 -0.000000 5.619419
LeftHand -5.089102 -0.000000 8.136021
LeftHandThumb1 -26.253704 0.000000 33.147579
Head -14.693058 22.784545 16.831898
